<svg width="35" height="34" viewBox="0 0 35 34" fill="none" xmlns="http://www.w3.org/2000/svg">
<path d="M14.338 0C15.5399 0 16.225 1.1974 16.225 2.3999V9.76968H14.7035C14.4076 9.03787 13.8665 8.43179 13.173 8.05533C12.4795 7.67887 11.6767 7.55546 10.9022 7.70626C10.1277 7.85705 9.42968 8.27266 8.92786 8.88185C8.42604 9.49105 8.15162 10.2559 8.15162 11.0453C8.15162 11.8347 8.42604 12.5996 8.92786 13.2088C9.42968 13.818 10.1277 14.2336 10.9022 14.3844C11.6767 14.5352 12.4795 14.4118 13.173 14.0353C13.8665 13.6589 14.4076 13.0528 14.7035 12.321H16.225V30.8568C16.225 31.8705 15.7966 32.8791 14.8939 33.3401C14.0754 33.769 13.1659 33.9953 12.2419 34C9.6749 34 7.7658 32.7006 6.5367 31.163C5.68548 30.1019 5.09192 28.8577 4.8027 27.5283C4.00883 27.2939 3.27359 26.8939 2.6454 26.3547C1.4384 25.3155 0.5 23.6486 0.5 21.1926C0.5 19.9085 0.5918 18.7893 0.823 17.8487H7.98C9.1326 17.8487 10.088 18.6992 10.2495 19.8064C9.52091 20.108 8.91973 20.6535 8.54886 21.3497C8.17798 22.0458 8.06047 22.8493 8.21644 23.6226C8.3724 24.3959 8.79215 25.0909 9.40383 25.5887C10.0155 26.0865 10.7811 26.3561 11.5696 26.3514C12.358 26.3467 13.1203 26.0679 13.726 25.5629C14.3317 25.0578 14.7432 24.3578 14.8899 23.5827C15.0366 22.8076 14.9095 22.0056 14.5303 21.3139C14.1512 20.6223 13.5435 20.0839 12.8114 19.7911C12.7221 18.5701 12.1743 17.4281 11.2781 16.5946C10.3819 15.761 9.20365 15.2976 7.98 15.2974H2.268C2.52257 15.0869 2.80594 14.914 3.1095 14.7838C2.93426 14.1588 2.83271 13.5155 2.8069 12.8669C2.7508 11.6168 2.9378 10.3157 3.3084 9.15738C3.6756 8.01781 4.257 6.90715 5.073 6.14007C5.58487 5.64105 6.23336 5.30539 6.9362 5.17569C7.2745 3.74697 8.1364 2.56658 9.2363 1.71106C10.649 0.608905 12.5003 0 14.3363 0H14.338ZM18.775 25.5026H21.58C22.865 25.5026 24.0973 24.9918 25.0059 24.0828C25.9145 23.1737 26.425 21.9407 26.425 20.6551V17.6021C27.1565 17.3061 27.7622 16.7647 28.1385 16.0708C28.5148 15.377 28.6381 14.5737 28.4874 13.7989C28.3367 13.024 27.9213 12.3256 27.3124 11.8236C26.7035 11.3215 25.939 11.0469 25.15 11.0469C24.361 11.0469 23.5965 11.3215 22.9876 11.8236C22.3787 12.3256 21.9633 13.024 21.8126 13.7989C21.6619 14.5737 21.7852 15.377 22.1615 16.0708C22.5378 16.7647 23.1435 17.3061 23.875 17.6021V20.6551C23.875 21.2641 23.6332 21.8481 23.2028 22.2788C22.7724 22.7094 22.1887 22.9513 21.58 22.9513H18.775V11.0572V11.0453V2.3999C18.775 1.1974 19.4601 0 20.662 0C22.5014 0 24.351 0.608905 25.7637 1.71106C26.8636 2.56658 27.7255 3.74867 28.0638 5.17569C28.7778 5.29475 29.4136 5.65873 29.927 6.14007C30.743 6.90715 31.3244 8.01611 31.6916 9.15738C32.0622 10.3157 32.2492 11.6168 32.1931 12.8669C32.1642 13.5065 32.0707 14.1596 31.8905 14.7838L32.0027 14.8348C32.6317 15.1308 33.1417 15.5951 33.5225 16.2125C34.245 17.3776 34.5 19.0546 34.5 21.1926C34.5 23.6503 33.5616 25.3189 32.3546 26.3547C31.7259 26.8941 30.9901 27.2941 30.1956 27.5283C29.9068 28.8575 29.3139 30.1017 28.4633 31.163C27.2342 32.7006 25.3251 34 22.7564 34C21.8325 33.9959 20.9231 33.7701 20.1044 33.3418C19.2034 32.8791 18.775 31.8705 18.775 30.8568V25.5026ZM10.7 11.0453C10.7 10.8198 10.7896 10.6035 10.949 10.444C11.1084 10.2845 11.3246 10.1949 11.55 10.1949C11.7754 10.1949 11.9916 10.2845 12.151 10.444C12.3104 10.6035 12.4 10.8198 12.4 11.0453C12.4 11.2709 12.3104 11.4872 12.151 11.6467C11.9916 11.8062 11.7754 11.8957 11.55 11.8957C11.3246 11.8957 11.1084 11.8062 10.949 11.6467C10.7896 11.4872 10.7 11.2709 10.7 11.0453ZM11.55 22.1009C11.3246 22.1009 11.1084 22.1904 10.949 22.3499C10.7896 22.5094 10.7 22.7257 10.7 22.9513C10.7 23.1768 10.7896 23.3931 10.949 23.5526C11.1084 23.7121 11.3246 23.8017 11.55 23.8017C11.7754 23.8017 11.9916 23.7121 12.151 23.5526C12.3104 23.3931 12.4 23.1768 12.4 22.9513C12.4 22.7257 12.3104 22.5094 12.151 22.3499C11.9916 22.1904 11.7754 22.1009 11.55 22.1009ZM24.3 14.447C24.3 14.6726 24.3896 14.8889 24.549 15.0484C24.7084 15.2079 24.9246 15.2974 25.15 15.2974C25.3754 15.2974 25.5916 15.2079 25.751 15.0484C25.9104 14.8889 26 14.6726 26 14.447C26 14.2215 25.9104 14.0052 25.751 13.8457C25.5916 13.6862 25.3754 13.5966 25.15 13.5966C24.9246 13.5966 24.7084 13.6862 24.549 13.8457C24.3896 14.0052 24.3 14.2215 24.3 14.447Z" fill="#009FAC"/>
</svg>
