<svg width="35" height="34" viewBox="0 0 35 34" fill="none" xmlns="http://www.w3.org/2000/svg">
<path d="M19.2 28.9V32.3C19.2 32.7509 19.0209 33.1833 18.7021 33.5021C18.3833 33.8209 17.9509 34 17.5 34C17.0491 34 16.6167 33.8209 16.2979 33.5021C15.9791 33.1833 15.8 32.7509 15.8 32.3V28.9H12.4V32.3C12.4 32.7509 12.2209 33.1833 11.9021 33.5021C11.5833 33.8209 11.1509 34 10.7 34C10.2491 34 9.81673 33.8209 9.49792 33.5021C9.17911 33.1833 9 32.7509 9 32.3V28.9C9 28.8031 9.0085 28.7096 9.0238 28.6178C8.29757 28.3642 7.63792 27.95 7.09398 27.406C6.55005 26.8621 6.13583 26.2024 5.8822 25.4762C5.78905 25.4927 5.69459 25.5007 5.6 25.5H2.2C1.74913 25.5 1.31673 25.3209 0.997918 25.0021C0.679107 24.6833 0.5 24.2509 0.5 23.8C0.5 23.3491 0.679107 22.9167 0.997918 22.5979C1.31673 22.2791 1.74913 22.1 2.2 22.1H5.6V18.7H2.2C1.74913 18.7 1.31673 18.5209 0.997918 18.2021C0.679107 17.8833 0.5 17.4509 0.5 17C0.5 16.5491 0.679107 16.1167 0.997918 15.7979C1.31673 15.4791 1.74913 15.3 2.2 15.3H5.6V11.9H2.2C1.74913 11.9 1.31673 11.7209 0.997918 11.4021C0.679107 11.0833 0.5 10.6509 0.5 10.2C0.5 9.74913 0.679107 9.31673 0.997918 8.99792C1.31673 8.67911 1.74913 8.5 2.2 8.5H5.6C5.6969 8.5 5.7904 8.5085 5.8822 8.5238C6.3922 7.055 7.555 5.8922 9.0238 5.3822C9.00809 5.28895 9.00013 5.19456 9 5.1V1.7C9 1.24913 9.17911 0.81673 9.49792 0.497918C9.81673 0.179107 10.2491 0 10.7 0C11.1509 0 11.5833 0.179107 11.9021 0.497918C12.2209 0.81673 12.4 1.24913 12.4 1.7V5.1H15.8V1.7C15.8 1.24913 15.9791 0.81673 16.2979 0.497918C16.6167 0.179107 17.0491 0 17.5 0C17.9509 0 18.3833 0.179107 18.7021 0.497918C19.0209 0.81673 19.2 1.24913 19.2 1.7V5.1H22.6V1.7C22.6 1.24913 22.7791 0.81673 23.0979 0.497918C23.4167 0.179107 23.8491 0 24.3 0C24.7509 0 25.1833 0.179107 25.5021 0.497918C25.8209 0.81673 26 1.24913 26 1.7V5.1C26 5.1952 25.9915 5.2904 25.9762 5.3822C27.445 5.8922 28.6078 7.055 29.1178 8.5238C29.2109 8.5073 29.3054 8.49934 29.4 8.5H32.8C33.2509 8.5 33.6833 8.67911 34.0021 8.99792C34.3209 9.31673 34.5 9.74913 34.5 10.2C34.5 10.6509 34.3209 11.0833 34.0021 11.4021C33.6833 11.7209 33.2509 11.9 32.8 11.9H29.4V15.3H32.8C33.2509 15.3 33.6833 15.4791 34.0021 15.7979C34.3209 16.1167 34.5 16.5491 34.5 17C34.5 17.4509 34.3209 17.8833 34.0021 18.2021C33.6833 18.5209 33.2509 18.7 32.8 18.7H29.4V22.1H32.8C33.2509 22.1 33.6833 22.2791 34.0021 22.5979C34.3209 22.9167 34.5 23.3491 34.5 23.8C34.5 24.2509 34.3209 24.6833 34.0021 25.0021C33.6833 25.3209 33.2509 25.5 32.8 25.5H29.4C29.3031 25.5 29.2096 25.4915 29.1178 25.4762C28.8642 26.2024 28.45 26.8621 27.906 27.406C27.3621 27.95 26.7024 28.3642 25.9762 28.6178C25.9932 28.7096 26 28.8048 26 28.9V32.3C26 32.7509 25.8209 33.1833 25.5021 33.5021C25.1833 33.8209 24.7509 34 24.3 34C23.8491 34 23.4167 33.8209 23.0979 33.5021C22.7791 33.1833 22.6 32.7509 22.6 32.3V28.9H19.2ZM14.1 11.9C13.6491 11.9 13.2167 12.0791 12.8979 12.3979C12.5791 12.7167 12.4 13.1491 12.4 13.6V20.4C12.4 20.8509 12.5791 21.2833 12.8979 21.6021C13.2167 21.9209 13.6491 22.1 14.1 22.1H20.9C21.3509 22.1 21.7833 21.9209 22.1021 21.6021C22.4209 21.2833 22.6 20.8509 22.6 20.4V13.6C22.6 13.1491 22.4209 12.7167 22.1021 12.3979C21.7833 12.0791 21.3509 11.9 20.9 11.9H14.1Z" fill="#009FAC"/>
</svg>
