<svg width="39" height="36" viewBox="0 0 39 36" fill="none" xmlns="http://www.w3.org/2000/svg">
<path d="M19.5 0C20.4162 0 21.2949 0.379284 21.9427 1.05442C22.5906 1.72955 22.9545 2.64522 22.9545 3.6C22.9545 4.932 22.2636 6.102 21.2273 6.714V9H22.9545C26.1613 9 29.2366 10.3275 31.5041 12.6905C33.7716 15.0534 35.0455 18.2583 35.0455 21.6H36.7727C37.2308 21.6 37.6702 21.7896 37.9941 22.1272C38.318 22.4648 38.5 22.9226 38.5 23.4V28.8C38.5 29.2774 38.318 29.7352 37.9941 30.0728C37.6702 30.4104 37.2308 30.6 36.7727 30.6H35.0455V32.4C35.0455 33.3548 34.6815 34.2705 34.0336 34.9456C33.3858 35.6207 32.5071 36 31.5909 36H7.40909C6.49289 36 5.61421 35.6207 4.96636 34.9456C4.31851 34.2705 3.95455 33.3548 3.95455 32.4V30.6H2.22727C1.76917 30.6 1.32983 30.4104 1.00591 30.0728C0.68198 29.7352 0.5 29.2774 0.5 28.8V23.4C0.5 22.9226 0.68198 22.4648 1.00591 22.1272C1.32983 21.7896 1.76917 21.6 2.22727 21.6H3.95455C3.95455 18.2583 5.22841 15.0534 7.49589 12.6905C9.76338 10.3275 12.8387 9 16.0455 9H17.7727V6.714C16.7364 6.102 16.0455 4.932 16.0455 3.6C16.0455 2.64522 16.4094 1.72955 17.0573 1.05442C17.7051 0.379284 18.5838 0 19.5 0ZM11.7273 19.8C10.582 19.8 9.48367 20.2741 8.67386 21.118C7.86404 21.9619 7.40909 23.1065 7.40909 24.3C7.40909 25.4935 7.86404 26.6381 8.67386 27.482C9.48367 28.3259 10.582 28.8 11.7273 28.8C12.8725 28.8 13.9709 28.3259 14.7807 27.482C15.5905 26.6381 16.0455 25.4935 16.0455 24.3C16.0455 23.1065 15.5905 21.9619 14.7807 21.118C13.9709 20.2741 12.8725 19.8 11.7273 19.8ZM27.2727 19.8C26.1275 19.8 25.0291 20.2741 24.2193 21.118C23.4095 21.9619 22.9545 23.1065 22.9545 24.3C22.9545 25.4935 23.4095 26.6381 24.2193 27.482C25.0291 28.3259 26.1275 28.8 27.2727 28.8C28.418 28.8 29.5163 28.3259 30.3261 27.482C31.136 26.6381 31.5909 25.4935 31.5909 24.3C31.5909 23.1065 31.136 21.9619 30.3261 21.118C29.5163 20.2741 28.418 19.8 27.2727 19.8Z" fill="#009FAC"/>
</svg>
