<svg width="35" height="34" viewBox="0 0 35 34" fill="none" xmlns="http://www.w3.org/2000/svg">
<path d="M25.5055 16.0733L28.4706 13.1076L21.3883 6.02383L18.4231 8.98957L10.6042 1.18798C9.13105 -0.285445 6.73249 -0.285445 5.25935 1.18798L1.67095 4.77709C0.197819 6.25051 0.197819 8.64955 1.67095 10.123L9.471 17.9246L0.5 26.9162V34H7.58237L16.5723 25.0083L24.3723 32.8099C26.1665 34.6045 28.584 33.9433 29.7171 32.8099L33.3055 29.2208C34.7787 27.7474 34.7787 25.3484 33.3055 23.8749L25.5055 16.0733ZM12.1718 15.2422L4.35281 7.44059L7.92233 3.85148L10.3209 6.25051L8.0923 8.49843L10.7553 11.1619L13.0027 8.91401L15.7413 11.6531L12.1718 15.2422ZM27.0542 30.1464L19.2541 22.3448L22.8425 18.7557L25.581 21.4948L23.3336 23.7427L25.9965 26.4062L28.244 24.1583L30.6426 26.5573L27.0542 30.1464ZM33.9477 7.62949C34.1228 7.45473 34.2617 7.24715 34.3564 7.01863C34.4512 6.79011 34.5 6.54514 34.5 6.29774C34.5 6.05034 34.4512 5.80537 34.3564 5.57685C34.2617 5.34833 34.1228 5.14075 33.9477 4.96599L29.5283 0.545717C28.6406 -0.342116 27.413 -0.00209463 26.8653 0.545717L23.4091 4.0026L30.4915 11.0864L33.9477 7.62949Z" fill="#009FAC"/>
</svg>
