<svg width="220" height="48" viewBox="0 0 220 48" fill="none" xmlns="http://www.w3.org/2000/svg">
<g clip-path="url(#clip0)">
<path d="M143.502 30.056L140.014 21.953L136.544 30.056L136.301 30.607H143.726L143.502 30.056ZM142.351 15.9757L152.907 39.9999H147.759L145.585 34.9734H134.479L134.321 35.3186L132.28 39.9999H127.272L137.931 15.8364H142.212L142.351 15.9757ZM176.598 32.4784L171.105 15.8425H167.096L161.604 32.4784L156.28 15.8425H151.066L159.496 40.006H163.547L169.04 24.1332L174.533 40.006H178.627L187.039 15.8425H181.946L176.598 32.4784ZM195.838 29.626H204.771V25.2111H195.838V20.2452H208.792V15.8606H191.005V40.006H209.264V35.6033H195.838V29.6078V29.626ZM215.096 15.8606V39.9878H219.941V15.8425L215.096 15.8606ZM92.2561 25.5805H81.1857V15.8425H76.2803V40.0241H81.1857V30.1952H92.2561V40.0241H97.1614V15.8425H92.2561V25.5866V25.5805ZM119.89 15.8364H124.789V29.4806C124.789 36.4087 120.974 40.3815 114.324 40.3815C107.675 40.3815 103.962 36.4753 103.962 29.6744V15.8546H108.868V29.517C108.868 33.5563 110.854 35.7183 114.397 35.7183C117.94 35.7183 119.89 33.6108 119.89 29.6623V15.8425V15.8364Z" fill="white"/>
<path d="M36.8493 37.4503C36.8879 37.4758 36.9332 37.4895 36.9795 37.4895C37.0258 37.4895 37.071 37.4758 37.1097 37.4503C39.9076 36.0514 51.5654 30.1286 56.386 25.4109C58.2601 23.7829 59.4139 21.4795 59.5957 19.0037C59.9409 13.5533 54.4299 8.44805 54.4299 8.44805C47.4503 17.2888 41.5202 26.9095 36.7584 37.1172C36.7449 37.1717 36.7456 37.2287 36.7604 37.2828C36.7753 37.3368 36.8038 37.3862 36.8432 37.4261L36.8493 37.4503ZM63.635 24.7085C63.635 24.7085 47.0173 33.6411 38.4178 39.4427C38.3736 39.4725 38.3399 39.5155 38.3214 39.5654C38.3029 39.6154 38.3006 39.67 38.3148 39.7213C38.3148 39.7213 38.3996 39.8788 38.5207 39.8788C41.5972 39.8788 53.2369 39.8788 53.5457 39.8424C54.7013 39.759 55.8371 39.4975 56.9128 39.0673C59.7281 37.9616 61.9892 35.7833 63.199 33.0113C64.3495 30.3801 64.5024 27.4199 63.629 24.6842L63.635 24.7085ZM38.8538 41.3322C38.8074 41.3411 38.7635 41.3597 38.7248 41.3869C38.6862 41.414 38.6538 41.4491 38.6297 41.4897C38.618 41.5352 38.6179 41.5829 38.6296 41.6284C38.6412 41.674 38.6642 41.7158 38.6964 41.7501C40.5616 43.0945 46.2421 47.0673 48.9916 47.8061C48.9916 47.8061 54.0544 49.5321 58.439 41.9863L38.872 41.3141L38.8538 41.3322ZM34.227 35.8818C34.278 35.9016 34.3345 35.9021 34.3858 35.8831C34.4371 35.8642 34.4797 35.8271 34.5056 35.7789C36.3708 33.0839 44.8493 20.5056 46.5571 12.8689C46.5571 12.8689 47.4897 9.17477 46.5934 6.64941C46.1225 5.17251 45.2816 3.84066 44.1505 2.78063C43.0194 1.72059 41.6359 0.967628 40.1316 0.593395C40.1316 0.593395 38.6479 0.211866 37.0552 -0.012207C37.0552 -0.012207 31.2535 7.44881 34.0817 35.6396C34.0761 35.6872 34.0869 35.7352 34.1122 35.7759C34.1375 35.8166 34.1758 35.8475 34.221 35.8636L34.227 35.8818ZM27.741 0.00596029C26.8932 0.0725765 24.5979 0.611562 24.5979 0.611562C23.1036 0.993999 21.7313 1.75064 20.6104 2.81016C19.4894 3.86968 18.6567 5.1972 18.1907 6.66758C17.2399 9.62292 18.1907 12.8871 18.1907 12.8871C19.9166 20.554 28.4132 33.1808 30.2482 35.8273C30.3693 35.9666 30.4723 35.9121 30.4723 35.9121C30.5252 35.8968 30.5718 35.865 30.6056 35.8215C30.6393 35.778 30.6584 35.7249 30.66 35.6698C33.4942 7.47908 27.7228 0.0180657 27.7228 0.0180657L27.741 0.00596029ZM26.4511 39.7456C26.554 39.5881 26.3845 39.4549 26.3845 39.4549C17.8031 33.6532 1.14904 24.7387 1.14904 24.7387C0.598697 26.43 0.445569 28.2254 0.701542 29.9854C0.957515 31.7455 1.6157 33.4228 2.62499 34.8873C3.63429 36.3517 4.96753 37.5638 6.5212 38.4295C8.07487 39.2952 9.80716 39.7911 11.5836 39.8788C11.8742 39.9333 23.2051 39.8788 26.2452 39.8788C26.3268 39.8664 26.4006 39.823 26.4511 39.7577V39.7456ZM26.1604 41.5018C26.1412 41.4487 26.1056 41.4031 26.0588 41.3715C26.012 41.34 25.9564 41.3241 25.9 41.3262L6.3451 41.9984C8.47077 45.7834 12.0438 48.7145 15.7562 47.8182C18.33 47.1763 24.1316 43.1187 26.0514 41.7622C26.2088 41.6411 26.1543 41.5381 26.1543 41.52L26.1604 41.5018ZM27.9711 37.4806C28.0054 37.4517 28.0292 37.4123 28.039 37.3686C28.0489 37.3249 28.0442 37.2792 28.0257 37.2383C23.2717 26.9891 17.3326 17.3325 10.33 8.46622C10.33 8.46622 4.77054 13.7531 5.16418 19.0521C5.25726 20.2741 5.59024 21.4657 6.1441 22.5588C6.69795 23.652 7.46183 24.6253 8.39204 25.4231C13.2369 30.1528 24.9916 36.1301 27.7168 37.4988C27.7608 37.5161 27.8089 37.5202 27.8551 37.5105C27.9014 37.5008 27.9438 37.4778 27.9772 37.4443" fill="white"/>
</g>
<defs>
<clipPath id="clip0">
<rect width="219.361" height="48" fill="white" transform="translate(0.574219)"/>
</clipPath>
</defs>
</svg>
