<svg width="194" height="48" viewBox="0 0 194 48" fill="none" xmlns="http://www.w3.org/2000/svg">
<path d="M26.7056 14.7773C27.4138 15.6905 28.0133 16.6825 28.492 17.7336L14.9119 27.7174L9.23633 24.1692V19.9006L14.9119 23.4487L26.7056 14.7773Z" fill="white"/>
<path d="M3.44421 23.868C3.44421 23.6765 3.44889 23.4862 3.45826 23.297L0.0187323 23.1289C0.00702524 23.3741 4.15651e-06 23.6216 4.15651e-06 23.8715C-0.00145927 25.8235 0.383523 27.7565 1.13288 29.5596C1.88223 31.3629 2.98119 33.0008 4.36673 34.3795L6.80647 31.9475C5.73993 30.8881 4.89384 29.6289 4.31683 28.2424C3.73982 26.8558 3.44327 25.3692 3.44421 23.868Z" fill="white"/>
<path d="M14.9094 12.4341C15.1014 12.4341 15.2921 12.4411 15.4818 12.4504L15.6539 9.01899C15.4073 9.00731 15.1591 9.00148 14.9094 9.00148C12.9512 8.99909 11.012 9.38249 9.20282 10.1296C7.39368 10.8768 5.75035 11.973 4.36719 13.3553L6.80693 15.7885C7.86921 14.7245 9.13191 13.8803 10.5224 13.3047C11.9129 12.729 13.4038 12.4331 14.9094 12.4341Z" fill="white"/>
<path d="M14.9088 35.3014C14.7168 35.3014 14.526 35.3014 14.3352 35.2862L14.1631 38.7165C14.4105 38.729 14.6591 38.7352 14.9088 38.7352C16.8662 38.7372 18.8045 38.3536 20.6127 37.6062C22.4208 36.8589 24.0631 35.7625 25.4452 34.3802L23.0101 31.9482C21.9477 33.0117 20.6851 33.8553 19.2948 34.4308C17.9046 35.0062 16.414 35.3022 14.9088 35.3014Z" fill="white"/>
<path d="M21.3713 14.4292L24.27 12.2984C21.6206 10.1588 18.3134 8.99406 14.9043 9.00002V12.4338C17.2128 12.4309 19.4677 13.1267 21.3713 14.4292Z" fill="white"/>
<path d="M29.8174 23.8675C29.8193 22.9742 29.7409 22.0825 29.5832 21.2031L26.3744 23.5616C26.3744 23.6632 26.3744 23.7648 26.3744 23.8675C26.3752 25.465 26.0394 27.0449 25.3889 28.5048C24.7382 29.9646 23.7872 31.2718 22.5977 32.3416L24.9122 34.8928C26.4587 33.5003 27.6946 31.7993 28.5396 29.9C29.3847 28.0007 29.82 25.9454 29.8174 23.8675Z" fill="white"/>
<path d="M14.9085 35.3017C13.3065 35.3022 11.7223 34.9672 10.2583 34.3184C8.79442 33.6696 7.48345 32.7213 6.41032 31.5352L3.85352 33.8422C5.24953 35.3849 6.95507 36.6176 8.85954 37.4606C10.764 38.3035 12.8248 38.7379 14.9085 38.7354V35.3017Z" fill="white"/>
<path d="M7.22091 15.3934L4.9076 12.8423C3.3606 14.2344 2.12428 15.9354 1.27883 17.8347C0.433389 19.734 -0.00230497 21.7894 9.1703e-06 23.8675H3.44422C3.44351 22.27 3.77934 20.6901 4.42993 19.2303C5.08054 17.7705 6.0314 16.4633 7.22091 15.3934Z" fill="white"/>
<path d="M86.0341 17.5025L90.2998 14.4038H76.0234V33.0245H90.2998V29.9258H80.0971V25.1561H88.8005V22.0573H80.0971V17.5025H86.0341Z" fill="white"/>
<path d="M66.4173 21.6577H61.4609V17.5012H69.3712L73.6343 14.3931H57.3896V33.0138H65.893C70.6604 33.0138 73.3965 30.8832 73.3965 27.1676C73.3965 23.613 70.9183 21.6577 66.4173 21.6577ZM65.7097 29.9141H61.4609V24.7545H65.7097C68.2882 24.7545 69.4972 25.6192 69.4972 27.3343C69.4972 29.0494 68.2108 29.9141 65.7097 29.9141Z" fill="white"/>
<path d="M100.794 14.4009H93.0225V33.0215H97.0955V27.7466H100.794C105.752 27.7466 108.819 25.1742 108.819 21.0638C108.819 16.9536 105.752 14.4009 100.794 14.4009ZM100.708 24.6455H97.0955V17.502H100.708C103.316 17.502 104.755 18.7713 104.755 21.0752C104.755 23.3791 103.316 24.6455 100.708 24.6455Z" fill="white"/>
<path d="M51.277 28.6274C50.2247 29.1892 49.0459 29.4801 47.8494 29.4732C44.2684 29.4732 41.6705 26.9524 41.6705 23.4812C41.6705 20.01 44.2684 17.4837 47.8494 17.4837C49.1408 17.462 50.4054 17.8482 51.4585 18.5857L54.3077 16.5167L54.115 16.3817C52.453 14.9409 50.2322 14.1777 47.6903 14.1777C44.9332 14.1777 42.4331 15.0924 40.6482 16.7564C39.7456 17.6131 39.0319 18.6441 38.5512 19.785C38.0706 20.926 37.8335 22.1522 37.8548 23.3875C37.8357 24.6353 38.0718 25.8741 38.5488 27.03C39.0259 28.186 39.7341 29.2351 40.6314 30.1151C42.4247 31.8452 44.9192 32.7984 47.6567 32.7984C50.5171 32.7984 53.0172 31.8149 54.71 30.0242L52.1597 28.1509L51.277 28.6274Z" fill="white"/>
<path d="M124.97 21.6577H120.015V17.5012H130.662V14.3931H115.941V33.0138H124.434C129.201 33.0138 131.937 30.8832 131.937 27.1676C131.948 23.613 129.471 21.6577 124.97 21.6577ZM124.262 29.9141H120.015V24.7545H124.262C126.841 24.7545 128.049 25.6192 128.049 27.3343C128.049 29.0494 126.774 29.9141 124.262 29.9141Z" fill="white"/>
<path d="M178.246 32.9874H174.116V14.3667H178.246V22.1875H180.493L186.563 14.3667H191.243L184.043 23.2248L192.403 32.9874H186.924L180.78 25.6641H178.246V32.9874Z" fill="white"/>
<path d="M146.94 29.4486H138.205L136.724 33.0645H132.329L140.522 14.4438H144.916L152.976 33.0645H148.421L146.94 29.4486ZM145.572 26.0747L142.598 18.8428L139.608 26.0747H145.572Z" fill="white"/>
<path d="M158.535 14.4438V22.2195H167.08V14.4438H171.338V33.0645H167.08V25.7273H158.535V33.0645H154.277V14.4438H158.535Z" fill="white"/>
</svg>
