<svg width="203" height="48" viewBox="0 0 203 48" fill="none" xmlns="http://www.w3.org/2000/svg">
<path fill-rule="evenodd" clip-rule="evenodd" d="M192.895 9.93278V15.5285C189.996 14.4341 187.415 13.8808 185.156 13.8808C183.818 13.8808 182.753 14.1286 181.952 14.6076C181.15 15.0908 180.741 15.6855 180.741 16.3875C180.741 17.3208 181.646 18.1509 183.467 18.8943L188.728 21.4547C192.982 23.4824 195.092 26.1749 195.092 29.5572C195.092 32.3695 193.973 34.612 191.714 36.2721C189.472 37.9488 186.453 38.7789 182.695 38.7789C180.96 38.7789 179.403 38.7046 178.02 38.5476C176.637 38.399 175.047 38.0933 173.283 37.6556V31.7997C176.517 32.8941 179.461 33.4474 182.113 33.4474C185.276 33.4474 186.849 32.5306 186.849 30.6805C186.849 29.7596 186.205 29.0162 184.896 28.4339L179.052 25.9437C176.897 24.9691 175.294 23.788 174.245 22.388C173.213 20.9757 172.688 19.3568 172.688 17.5067C172.688 14.9173 173.779 12.8318 175.934 11.246C178.107 9.67253 180.989 8.88379 184.574 8.88379C185.738 8.88379 187.081 8.98699 188.567 9.17697C190.066 9.37934 191.508 9.62712 192.895 9.93278Z" fill="white"/>
<path fill-rule="evenodd" clip-rule="evenodd" d="M27.3926 9.93278V15.5285C24.4935 14.4341 21.9166 13.8808 19.6576 13.8808C18.3154 13.8808 17.2541 14.1286 16.4529 14.6076C15.6518 15.0908 15.2429 15.6855 15.2429 16.3875C15.2429 17.3208 16.1597 18.1509 17.981 18.8943L23.2422 21.4547C27.4793 23.4824 29.5938 26.1749 29.5938 29.5572C29.5938 32.3695 28.4705 34.612 26.228 36.2721C23.9691 37.9488 20.9668 38.7789 17.1964 38.7789C15.4618 38.7789 13.9008 38.7046 12.5173 38.5476C11.1339 38.399 9.56042 38.0933 7.78471 37.6556V31.7997C11.0307 32.8941 13.9752 33.4474 16.6099 33.4474C19.7733 33.4474 21.3467 32.5306 21.3467 30.6805C21.3467 29.7596 20.7066 29.0162 19.4098 28.4339L13.5663 25.9437C11.394 24.9691 9.79168 23.788 8.7593 22.388C7.71031 20.9757 7.19824 19.3568 7.19824 17.5067C7.19824 14.9173 8.28026 12.8318 10.4483 11.246C12.6041 9.67253 15.4907 8.88379 19.0754 8.88379C20.2523 8.88379 21.578 8.98699 23.0812 9.17697C24.5679 9.37934 26.0092 9.62712 27.3926 9.93278Z" fill="white"/>
<path fill-rule="evenodd" clip-rule="evenodd" d="M33.4219 9.4082H41.9911V38.2544H33.4219V9.4082Z" fill="white"/>
<path fill-rule="evenodd" clip-rule="evenodd" d="M69.5981 9.4082V14.7398H56.8661V21.1366H67.9091V25.9436H56.8661V32.6586H69.8583V38.2544H48.6191V9.4082H69.5981Z" fill="white"/>
<path fill-rule="evenodd" clip-rule="evenodd" d="M109.603 9.4082V38.2544H101.604V19.2287L93.3033 38.5187H88.3642L80.3814 19.2287V38.2544H74.5957V9.4082H85.0562L92.1965 27.0669L99.6673 9.4082H109.603Z" fill="white"/>
<path fill-rule="evenodd" clip-rule="evenodd" d="M137.199 9.4082V14.7398H124.536V21.1366H135.579V25.9436H124.536V32.6586H137.459V38.2544H116.22V9.4082H137.199Z" fill="white"/>
<path fill-rule="evenodd" clip-rule="evenodd" d="M167.267 9.4082V38.2544H158.177L147.977 19.7532V38.2544H142.195V9.4082H151.55L161.486 27.5915V9.4082H167.267Z" fill="white"/>
</svg>
